<svg width="162" height="47" viewBox="0 0 162 47" fill="none" xmlns="http://www.w3.org/2000/svg">
<path d="M72.446 39.1288H74.0922C74.4274 39.1288 74.7301 39.1856 75.0004 39.2991C75.2734 39.4127 75.491 39.587 75.6532 39.8222C75.8154 40.0574 75.8965 40.3601 75.8965 40.7304C75.8965 41.1007 75.8154 41.4102 75.6532 41.6589C75.491 41.9049 75.2734 42.0901 75.0004 42.2144C74.7301 42.3388 74.4274 42.4009 74.0922 42.4009H73.2975V44.4809H72.446V39.1288ZM73.2975 41.7035H73.857C74.0652 41.7035 74.2544 41.6738 74.4247 41.6143C74.5977 41.5522 74.7342 41.4508 74.8342 41.3102C74.9369 41.1697 74.9883 40.9832 74.9883 40.7507C74.9883 40.5155 74.9369 40.3317 74.8342 40.1993C74.7342 40.0641 74.5977 39.9682 74.4247 39.9114C74.2544 39.8546 74.0652 39.8262 73.857 39.8262H73.2975V41.7035ZM77.9701 44.5783C77.6214 44.5783 77.3106 44.5026 77.0376 44.3512C76.7672 44.1971 76.5551 43.989 76.401 43.7268C76.2469 43.4619 76.1699 43.1618 76.1699 42.8267C76.1699 42.4915 76.2469 42.1901 76.401 41.9225C76.5551 41.6549 76.7672 41.444 77.0376 41.29C77.3106 41.1332 77.6214 41.0548 77.9701 41.0548C78.3188 41.0548 78.627 41.1332 78.8946 41.29C79.1622 41.444 79.3717 41.6549 79.523 41.9225C79.6771 42.1901 79.7541 42.4915 79.7541 42.8267C79.7541 43.1618 79.6771 43.4619 79.523 43.7268C79.3717 43.989 79.1622 44.1971 78.8946 44.3512C78.627 44.5026 78.3188 44.5783 77.9701 44.5783ZM77.9701 43.8484C78.1647 43.8484 78.3337 43.8038 78.4769 43.7146C78.6202 43.6254 78.731 43.5038 78.8094 43.3497C78.8878 43.1956 78.927 43.0199 78.927 42.8226C78.927 42.6253 78.8878 42.4496 78.8094 42.2955C78.731 42.1387 78.6202 42.0144 78.4769 41.9225C78.3337 41.8306 78.1647 41.7846 77.9701 41.7846C77.7755 41.7846 77.6052 41.8306 77.4592 41.9225C77.316 42.0144 77.2038 42.1387 77.1227 42.2955C77.0443 42.4496 77.0051 42.6253 77.0051 42.8226C77.0051 43.0199 77.0443 43.1956 77.1227 43.3497C77.2038 43.5038 77.316 43.6254 77.4592 43.7146C77.6052 43.8038 77.7755 43.8484 77.9701 43.8484ZM82.7899 42.1617L81.9668 44.4809H81.1154L80.1504 41.1521H81.0708L81.6506 43.5443L82.4655 41.217H83.1183L83.9252 43.5443L84.5131 41.1521H85.4335L84.4726 44.4809H83.6211L82.7899 42.1617ZM86.6264 43.0213C86.6318 43.197 86.6737 43.3551 86.752 43.4957C86.8304 43.6362 86.9453 43.7471 87.0967 43.8282C87.2508 43.9065 87.4386 43.9457 87.6603 43.9457C87.8522 43.9457 88.0171 43.9201 88.1549 43.8687C88.2955 43.8146 88.4117 43.7511 88.5036 43.6781C88.5955 43.6024 88.6631 43.5322 88.7064 43.4673L89.0916 43.9903C89.0078 44.1039 88.9023 44.2052 88.7753 44.2944C88.6483 44.3836 88.4901 44.4526 88.3009 44.5012C88.1144 44.5526 87.8833 44.5783 87.6076 44.5783C87.2454 44.5783 86.9304 44.5039 86.6628 44.3553C86.3952 44.2066 86.1871 43.9971 86.0384 43.7268C85.8925 43.4565 85.8195 43.1402 85.8195 42.778C85.8195 42.4536 85.8871 42.1617 86.0222 41.9022C86.1574 41.64 86.3533 41.4332 86.6101 41.2819C86.8696 41.1305 87.1805 41.0548 87.5427 41.0548C87.8806 41.0548 88.1739 41.1224 88.4226 41.2575C88.6712 41.3927 88.8632 41.5873 88.9983 41.8414C89.1362 42.0928 89.2051 42.3969 89.2051 42.7537C89.2051 42.7753 89.2037 42.8199 89.201 42.8875C89.201 42.9551 89.1983 42.9997 89.1929 43.0213H86.6264ZM88.3942 42.3888C88.3915 42.3023 88.3617 42.2036 88.305 42.0928C88.2509 41.982 88.1631 41.886 88.0414 41.8049C87.9198 41.7211 87.7576 41.6792 87.5549 41.6792C87.3467 41.6792 87.1778 41.7198 87.048 41.8008C86.9183 41.8792 86.8223 41.9738 86.7602 42.0847C86.698 42.1928 86.6615 42.2942 86.6507 42.3888H88.3942ZM90.7655 44.4809H89.9019V41.1521H90.7655V41.7076H90.7452C90.7641 41.64 90.8155 41.5562 90.8993 41.4562C90.9858 41.3535 91.1047 41.2616 91.2561 41.1805C91.4075 41.0967 91.5899 41.0548 91.8035 41.0548C91.9575 41.0548 92.0954 41.0764 92.217 41.1197C92.3387 41.1629 92.4252 41.2062 92.4765 41.2494L92.1278 41.963C92.0927 41.9198 92.0265 41.8779 91.9292 41.8373C91.8346 41.7941 91.717 41.7725 91.5764 41.7725C91.4007 41.7725 91.252 41.8238 91.1304 41.9265C91.0115 42.0293 90.9209 42.1522 90.8587 42.2955C90.7966 42.4388 90.7655 42.5726 90.7655 42.6969V44.4809ZM93.4131 43.0213C93.4185 43.197 93.4604 43.3551 93.5388 43.4957C93.6172 43.6362 93.7321 43.7471 93.8834 43.8282C94.0375 43.9065 94.2254 43.9457 94.447 43.9457C94.6389 43.9457 94.8038 43.9201 94.9417 43.8687C95.0822 43.8146 95.1985 43.7511 95.2904 43.6781C95.3823 43.6024 95.4499 43.5322 95.4931 43.4673L95.8783 43.9903C95.7945 44.1039 95.6891 44.2052 95.562 44.2944C95.435 44.3836 95.2769 44.4526 95.0877 44.5012C94.9011 44.5526 94.67 44.5783 94.3943 44.5783C94.0321 44.5783 93.7172 44.5039 93.4496 44.3553C93.182 44.2066 92.9738 43.9971 92.8252 43.7268C92.6792 43.4565 92.6062 43.1402 92.6062 42.778C92.6062 42.4536 92.6738 42.1617 92.809 41.9022C92.9441 41.64 93.1401 41.4332 93.3969 41.2819C93.6564 41.1305 93.9672 41.0548 94.3294 41.0548C94.6673 41.0548 94.9606 41.1224 95.2093 41.2575C95.458 41.3927 95.6499 41.5873 95.785 41.8414C95.9229 42.0928 95.9918 42.3969 95.9918 42.7537C95.9918 42.7753 95.9905 42.8199 95.9878 42.8875C95.9878 42.9551 95.9851 42.9997 95.9797 43.0213L93.4131 43.0213ZM95.1809 42.3888C95.1782 42.3023 95.1485 42.2036 95.0917 42.0928C95.0376 41.982 94.9498 41.886 94.8282 41.8049C94.7065 41.7211 94.5443 41.6792 94.3416 41.6792C94.1335 41.6792 93.9645 41.7198 93.8348 41.8008C93.705 41.8792 93.6091 41.9738 93.5469 42.0847C93.4847 42.1928 93.4482 42.2942 93.4374 42.3888H95.1809ZM98.1848 44.5783C97.8712 44.5783 97.5941 44.5039 97.3536 44.3553C97.113 44.2066 96.9238 43.9998 96.7859 43.7349C96.6508 43.47 96.5832 43.1645 96.5832 42.8186C96.5832 42.4726 96.6508 42.1671 96.7859 41.9022C96.9238 41.6373 97.113 41.4305 97.3536 41.2819C97.5941 41.1305 97.8712 41.0548 98.1848 41.0548C98.4172 41.0548 98.624 41.0953 98.8051 41.1764C98.9862 41.2548 99.1308 41.3467 99.239 41.4521C99.3471 41.5576 99.4106 41.6508 99.4295 41.7319V38.9018H100.297V44.4809H99.4417V43.8646C99.4038 43.9593 99.3268 44.062 99.2106 44.1728C99.0943 44.2836 98.947 44.3796 98.7686 44.4607C98.5929 44.5391 98.3983 44.5783 98.1848 44.5783ZM98.4078 43.8768C98.597 43.8768 98.7686 43.8322 98.9227 43.743C99.0768 43.6538 99.1998 43.5308 99.2917 43.374C99.3836 43.2146 99.4295 43.0294 99.4295 42.8186C99.4295 42.6077 99.3836 42.4239 99.2917 42.2671C99.1998 42.1076 99.0768 41.9833 98.9227 41.8941C98.7686 41.8022 98.597 41.7562 98.4078 41.7562C98.2348 41.7562 98.0739 41.8008 97.9253 41.89C97.7793 41.9765 97.6617 42.0995 97.5725 42.259C97.4833 42.4185 97.4387 42.605 97.4387 42.8186C97.4387 43.0321 97.4833 43.2186 97.5725 43.3781C97.6617 43.5376 97.7793 43.6606 97.9253 43.7471C98.0739 43.8336 98.2348 43.8768 98.4078 43.8768ZM103.14 39.1288H104.738C105.032 39.1288 105.308 39.1694 105.565 39.2505C105.824 39.3289 106.034 39.4627 106.193 39.6519C106.353 39.8384 106.433 40.0966 106.433 40.4263C106.433 40.648 106.389 40.848 106.303 41.0264C106.219 41.2048 106.112 41.3494 105.982 41.4603C105.853 41.5711 105.72 41.6387 105.585 41.663C105.699 41.6738 105.818 41.7089 105.942 41.7684C106.069 41.8252 106.188 41.9063 106.299 42.0117C106.412 42.1171 106.504 42.2496 106.574 42.409C106.645 42.5685 106.68 42.755 106.68 42.9686C106.68 43.2659 106.618 43.5281 106.493 43.7552C106.369 43.9822 106.184 44.1606 105.938 44.2904C105.692 44.4174 105.384 44.4809 105.013 44.4809H103.14V39.1288ZM103.992 43.7795H104.876C105.108 43.7795 105.289 43.7403 105.419 43.6619C105.551 43.5835 105.646 43.4795 105.703 43.3497C105.759 43.2173 105.788 43.0726 105.788 42.9159C105.788 42.6591 105.705 42.4577 105.541 42.3117C105.376 42.1658 105.139 42.0928 104.831 42.0928H103.992V43.7795ZM103.992 41.4035H104.762C104.949 41.4035 105.103 41.3656 105.224 41.29C105.346 41.2116 105.436 41.1089 105.496 40.9818C105.555 40.8521 105.585 40.7169 105.585 40.5763C105.585 40.2925 105.503 40.0979 105.338 39.9925C105.173 39.8844 104.953 39.8303 104.677 39.8303H103.992V41.4035ZM108.971 43.7065L110.025 41.1521H110.889L108.626 46.1677H107.751L108.513 44.4809L107.134 41.1521H108.01L108.971 43.7065Z" fill="#333333"/>
<path d="M120.101 41.023V42.3881H118.804V41.023C118.804 40.327 118.239 39.7627 117.543 39.7627H114.029V38.4653H117.543C118.952 38.4653 120.101 39.6141 120.101 41.023ZM116.222 42.3813H118.175V41.0839H114.85C114.401 41.0839 114.029 41.4522 114.029 41.9049V45.4899H115.327V43.2903L118.229 45.4899L120.108 45.4966L116.222 42.3813ZM115.33 42.3847L115.337 42.3813H115.33V42.3847ZM123.139 45.4662V45.4899H123.514C123.385 45.4899 123.264 45.4797 123.139 45.4662ZM129.724 39.8979H128.227V38.4653H126.93V43.6518H128.227V41.1954H129.724C130.549 41.1954 131.221 41.8678 131.221 42.6922C131.221 43.5166 130.549 44.189 129.724 44.189H123.514C122.686 44.189 122.017 43.5166 122.017 42.6922C122.017 41.8678 122.689 41.1954 123.514 41.1954C123.531 41.1954 123.551 41.1954 123.568 41.1954C123.575 41.1954 123.585 41.1954 123.591 41.1954C123.608 41.1954 123.622 41.1954 123.639 41.1954C123.676 41.1954 123.716 41.2021 123.754 41.2089C124.318 41.3035 124.791 41.7225 124.95 42.2766H123.105V43.5741H126.166C126.166 43.5741 126.17 43.5606 126.173 43.5538L126.203 43.4491C126.251 43.2835 126.281 43.1179 126.298 42.9557C126.298 42.9321 126.301 42.9084 126.305 42.8848C126.305 42.8476 126.308 42.8138 126.311 42.7767C126.311 42.7665 126.311 42.7564 126.311 42.7463C126.311 42.726 126.311 42.7091 126.311 42.6888C126.311 41.1481 125.058 39.8911 123.517 39.8911C121.976 39.8911 120.719 41.1447 120.719 42.6888C120.719 44.1046 121.777 45.277 123.142 45.4595C123.264 45.4764 123.389 45.4831 123.517 45.4831H129.727C131.268 45.4831 132.522 44.2296 132.522 42.6854C132.522 41.1413 131.268 39.8911 129.727 39.8911L129.724 39.8979ZM138.729 42.6922C138.729 44.233 137.475 45.4899 135.931 45.4899C134.387 45.4899 133.133 44.2363 133.133 42.6922C133.133 41.1481 134.387 39.8945 135.931 39.8945C137.475 39.8945 138.729 41.1481 138.729 42.6922ZM137.431 42.6922C137.431 41.8678 136.759 41.1954 135.934 41.1954C135.11 41.1954 134.438 41.8678 134.438 42.6922C134.438 43.5166 135.11 44.189 135.934 44.189C136.759 44.189 137.431 43.5166 137.431 42.6922ZM144.939 42.6922C144.939 44.233 143.685 45.4899 142.141 45.4899C140.597 45.4899 139.344 44.2363 139.344 42.6922C139.344 41.1481 140.597 39.8945 142.141 39.8945C143.685 39.8945 144.939 41.1481 144.939 42.6922ZM143.642 42.6922C143.642 41.8678 142.969 41.1954 142.145 41.1954C141.32 41.1954 140.648 41.8678 140.648 42.6922C140.648 43.5166 141.32 44.189 142.145 44.189C142.969 44.189 143.642 43.5166 143.642 42.6922ZM148.284 39.8945V41.192H146.851V45.4865H145.554V38.4653H146.851V39.8979H148.284V39.8945Z" fill="#05264E"/>
<path d="M159.134 39.5938V39.5972C159.725 39.5668 160.228 40.0229 160.259 40.6142H160.262C160.232 40.0229 160.688 39.5195 161.279 39.489C160.688 39.5161 160.184 39.0599 160.154 38.4686H160.151C160.181 39.0599 159.725 39.5634 159.134 39.5938Z" fill="#05264E"/>
<path d="M158.566 39.3573C158.704 39.3573 158.816 39.4688 158.816 39.6073C158.816 39.4688 158.927 39.3573 159.066 39.3573C158.927 39.3573 158.816 39.2458 158.816 39.1072C158.816 39.2458 158.704 39.3573 158.566 39.3573Z" fill="#05264E"/>
<path d="M158.353 45.4966H156.947L154.562 40.2155L152.177 45.4966H150.751L153.927 38.4653H155.197L158.353 45.4966Z" fill="#05264E"/>
<path d="M158.907 39.6918V45.4966H160.205C160.205 45.4966 160.205 42.0266 160.205 41.4826C160.205 40.9386 160.171 39.6952 158.907 39.6952V39.6918Z" fill="#05264E"/>
<path d="M159.323 39.2964C159.552 39.2964 159.738 39.1104 159.738 38.8809C159.738 38.6513 159.552 38.4653 159.323 38.4653C159.093 38.4653 158.907 38.6513 158.907 38.8809C158.907 39.1104 159.093 39.2964 159.323 39.2964Z" fill="#05264E"/>
<path d="M26.2724 6.16517H30.8056V23.2101C30.8056 26.1512 29.3187 28.8476 26.8291 30.4197C25.4691 31.2792 23.897 31.7325 22.2832 31.7325C20.6694 31.7325 19.0972 31.2792 17.7373 30.4197C15.2476 28.8476 13.7607 26.1512 13.7607 23.2101V22.8474H18.294V23.2101C18.294 25.4096 20.0837 27.1993 22.2832 27.1993C24.4827 27.1993 26.2724 25.4096 26.2724 23.2101V6.16517Z" fill="#05264E"/>
<path d="M30.8056 6.16517V23.2101C30.8056 26.1512 29.3187 28.8476 26.8291 30.4197C25.4691 31.2792 23.897 31.7325 22.2832 31.7325C20.6694 31.7325 19.0972 31.2792 17.7373 30.4197C15.2476 28.8476 13.7607 26.1512 13.7607 23.2101V22.8474H18.294V23.2101C18.294 25.4096 20.0837 27.1993 22.2832 27.1993C24.4827 27.1993 26.2724 25.4096 26.2724 23.2101V6.16517H30.8056Z" fill="#05264E"/>
<path d="M11.634 34.0662L6.50063 38.4653H0L9.06099 30.6989C9.10995 30.7878 9.16072 30.8766 9.2133 30.9637C9.22418 30.9818 9.23506 30.9999 9.24594 31.0181C9.7591 31.8776 10.3557 32.6881 11.0211 33.4225C11.1372 33.5531 11.2551 33.68 11.3784 33.8069C11.382 33.8124 11.3874 33.8178 11.3929 33.8232C11.4727 33.9048 11.5524 33.9864 11.634 34.0662Z" fill="#3C65F5"/>
<path d="M28.5391 5.0772C29.7909 5.0772 30.8057 3.94063 30.8057 2.5386C30.8057 1.13657 29.7909 0 28.5391 0C27.2873 0 26.2725 1.13657 26.2725 2.5386C26.2725 3.94063 27.2873 5.0772 28.5391 5.0772Z" fill="#05264E"/>
<path d="M37.4512 23.2772C37.4512 28.4051 34.9054 33.1414 30.6423 35.9484C29.4329 36.7463 28.1201 37.3628 26.7401 37.7798C25.3095 38.2186 23.8099 38.4417 22.2867 38.4417C20.7636 38.4417 19.2658 38.2168 17.8242 37.7726C16.4461 37.3501 15.1333 36.7281 13.9238 35.9266C13.1024 35.3845 12.3318 34.7589 11.6337 34.0662C11.5521 33.9864 11.4723 33.9048 11.3925 33.8232C11.3871 33.8178 11.3816 33.8124 11.378 33.8069C11.2547 33.68 11.1368 33.5531 11.0208 33.4225C10.3553 32.6881 9.75873 31.8776 9.24557 31.0181C9.23469 30.9999 9.22381 30.9818 9.21293 30.9637C9.16034 30.8766 9.10957 30.7878 9.06061 30.6989C8.95907 30.5194 8.86115 30.3363 8.76867 30.1568C7.67708 28.0171 7.12402 25.7015 7.12402 23.2772C7.12402 18.1764 9.66625 13.4491 13.9238 10.6295C15.1315 9.82983 16.4443 9.20787 17.8242 8.78175C19.2676 8.3393 20.769 8.11446 22.2867 8.11446C23.1408 8.11446 23.9948 8.18517 24.8217 8.3248V12.615L24.7437 12.5969C23.9658 12.4265 23.1589 12.3394 22.3447 12.3394C20.8488 12.3394 19.4108 12.6259 18.0726 13.1898C16.6619 13.7846 15.4234 14.6568 14.3899 15.781C12.5548 17.7738 11.5339 20.4122 11.5194 23.2119V23.2772C11.5194 26.0678 12.5385 28.7134 14.3899 30.7298C15.4271 31.8631 16.6673 32.7425 18.0745 33.3445C19.4235 33.923 20.8597 34.2167 22.3447 34.2167C23.8298 34.2167 25.1843 33.9375 26.4954 33.3899C27.9025 32.7987 29.1409 31.9265 30.1763 30.7969C32.0313 28.7787 33.054 26.1077 33.054 23.2772V23.2101C33.0468 21.7449 32.7802 20.3433 32.2562 19.0341V11.8263L32.501 12.0493C35.647 14.9107 37.4512 19.0014 37.4512 23.2772Z" fill="#3C65F5"/>
<path d="M50.9885 33.3191C49.0827 33.3191 47.3438 32.8676 45.768 31.9628C44.1923 31.0598 42.9411 29.8249 42.0127 28.2619C41.0843 26.6988 40.6201 24.9273 40.6201 22.949C40.6201 20.9707 41.0843 19.1701 42.0127 17.6179C42.9411 16.0675 44.1869 14.8454 45.7499 13.9532C47.313 13.0629 49.0591 12.6168 50.9885 12.6168C52.9178 12.6168 54.6948 13.0629 56.2452 13.9532C57.7956 14.8454 59.0304 16.0657 59.9461 17.6179C60.8618 19.1701 61.3206 20.9453 61.3206 22.949C61.3206 24.9526 60.8564 26.7351 59.928 28.2982C58.9996 29.8612 57.7539 31.0888 56.1908 31.9809C54.6277 32.8731 52.8942 33.3173 50.9885 33.3173V33.3191ZM50.9885 29.4713C52.1617 29.4713 53.1989 29.1903 54.1019 28.6282C55.0049 28.0661 55.7193 27.2918 56.2452 26.3017C56.7711 25.3117 57.0322 24.1947 57.0322 22.949C57.0322 21.7032 56.7692 20.5917 56.2452 19.6143C55.7193 18.637 55.0049 17.8681 54.1019 17.306C53.1971 16.7439 52.1599 16.4628 50.9885 16.4628C49.8171 16.4628 48.8089 16.7439 47.8932 17.306C46.9775 17.8681 46.2558 18.637 45.7318 19.6143C45.2059 20.5917 44.9448 21.7032 44.9448 22.949C44.9448 24.1947 45.2077 25.3117 45.7318 26.3017C46.2576 27.2918 46.9775 28.0661 47.8932 28.6282C48.8089 29.1903 49.8407 29.4713 50.9885 29.4713Z" fill="#05264E"/>
<path d="M83.6606 17.6759C82.7938 16.1129 81.6097 14.8798 80.1065 13.975C78.6051 13.072 76.9133 12.6187 75.0329 12.6187C73.4699 12.6187 72.0773 12.9378 70.8551 13.5725C69.9703 14.033 69.2141 14.6205 68.5849 15.3386V5.14611H64.4434V32.8803H68.4018V30.3472C69.0364 31.194 69.8469 31.8685 70.837 32.3672C72.0954 33.0018 73.4935 33.3191 75.0329 33.3191C76.9369 33.3191 78.6359 32.8622 80.1246 31.9465C81.6152 31.0308 82.7938 29.7905 83.6606 28.2274C84.5273 26.6644 84.9607 24.9055 84.9607 22.9508C84.9607 20.996 84.5273 19.239 83.6606 17.6759ZM79.8871 26.3035C79.3613 27.2936 78.6468 28.0697 77.7438 28.63C76.839 29.1921 75.8018 29.4732 74.6304 29.4732C73.459 29.4732 72.449 29.1921 71.5333 28.63C70.6176 28.0697 69.8977 27.2936 69.3719 26.3035C68.846 25.3153 68.5849 24.1965 68.5849 22.9508C68.5849 21.705 68.846 20.5953 69.3719 19.6179C69.8977 18.6406 70.6176 17.8718 71.5333 17.3096C72.449 16.7475 73.4808 16.4665 74.6304 16.4665C75.78 16.4665 76.839 16.7475 77.7438 17.3096C78.6468 17.8718 79.3613 18.6406 79.8871 19.6179C80.413 20.5953 80.6741 21.705 80.6741 22.9508C80.6741 24.1965 80.413 25.3153 79.8871 26.3035Z" fill="#05264E"/>
<path d="M105.121 20.4956V33.3191H101.019V21.6307C101.019 20.6298 100.829 19.7811 100.45 19.0848C100.071 18.3885 99.5522 17.8518 98.894 17.4728C98.2339 17.0939 97.476 16.9053 96.6219 16.9053C95.7678 16.9053 95.0407 17.0939 94.368 17.4728C93.6971 17.8518 93.1712 18.3958 92.7923 19.103C92.4133 19.812 92.2247 20.6551 92.2247 21.6307V33.3191H88.085V5.58492H92.2247V15.616C92.6689 14.9669 93.2311 14.4392 93.9111 14.0294C94.9845 13.3821 96.2302 13.0575 97.6482 13.0575C99.0662 13.0575 100.408 13.3766 101.53 14.0113C102.655 14.6459 103.534 15.5254 104.169 16.6496C104.803 17.772 105.121 19.0558 105.121 20.4956Z" fill="#05264E"/>
<path d="M125.337 13.0593V32.8803H121.416V30.4306C120.958 31.2139 120.334 31.8468 119.549 32.3309C118.473 32.9909 117.215 33.3191 115.773 33.3191C114.332 33.3191 112.977 32.9837 111.853 32.3128C110.731 31.64 109.857 30.7008 109.235 29.4913C108.611 28.2818 108.301 26.8838 108.301 25.2972V13.0593H112.441V24.9291C112.441 25.8339 112.624 26.6281 112.99 27.3117C113.356 27.9953 113.869 28.5266 114.528 28.9056C115.188 29.2846 115.944 29.4732 116.8 29.4732C117.656 29.4732 118.448 29.2773 119.108 28.8875C119.768 28.4958 120.287 27.9464 120.666 27.2374C121.045 26.5302 121.233 25.6997 121.233 24.7459V13.0593H125.337Z" fill="#05264E"/>
<path d="M145.579 20.5318V33.3191H141.475V21.6307C141.475 20.6298 141.292 19.7811 140.926 19.0848C140.559 18.3885 140.039 17.8518 139.368 17.4728C138.695 17.0939 137.932 16.9053 137.078 16.9053C136.224 16.9053 135.459 17.0939 134.788 17.4728C134.117 17.8518 133.598 18.3958 133.232 19.103C132.864 19.812 132.681 20.6551 132.681 21.6307V33.3191H128.541V13.4981H132.498V15.9025C132.965 15.121 133.589 14.4972 134.367 14.0294C135.442 13.3821 136.686 13.0575 138.104 13.0575C139.522 13.0575 140.864 13.3766 141.988 14.0113C143.111 14.6459 143.99 15.5254 144.625 16.6496C145.26 17.772 145.579 19.0667 145.579 20.5318Z" fill="#05264E"/>
<path d="M158.767 33.3191C156.691 33.3191 155.079 32.7335 153.931 31.5603C152.783 30.3871 152.208 28.7388 152.208 26.6136V17.0141H148.727V13.2769H149.276C150.204 13.2769 150.924 13.0085 151.437 12.4718C151.951 11.9351 152.206 11.2025 152.206 10.2741V8.7346H156.346V13.2769H160.852V17.0141H156.346V26.4305C156.346 27.1141 156.457 27.6943 156.676 28.1712C156.895 28.6481 157.249 29.0144 157.739 29.2701C158.226 29.5257 158.861 29.6545 159.644 29.6545C159.84 29.6545 160.06 29.6418 160.304 29.6182C160.547 29.5947 160.781 29.5693 161.001 29.5457V33.0997C160.658 33.1487 160.281 33.1977 159.866 33.2466C159.45 33.2956 159.084 33.3191 158.767 33.3191Z" fill="#05264E"/>
</svg>
